Coordinates
version=1
nRows=12
nColumns=42
inDegrees=yes

Units are S.I. units (second, meters, Newtons, ...)
If the header above contains a line with 'inDegrees', this indicates whether rotational values are in degrees (yes) or radians (no).

endheader
time	pelvis_tilt	pelvis_list	pelvis_rotation	pelvis_tx	pelvis_ty	pelvis_tz	hip_flexion_r	hip_adduction_r	hip_rotation_r	knee_angle_r	knee_adduction_r	knee_angle_r_beta	ankle_angle_r	subtalar_angle_r	mtp_angle_r	hip_flexion_l	hip_adduction_l	hip_rotation_l	knee_angle_l	knee_adduction_l	knee_angle_l_beta	ankle_angle_l	subtalar_angle_l	mtp_angle_l	lumbar_extension	lumbar_bending	lumbar_rotation	arm_flex_r	arm_add_r	arm_rot_r	elbow_flex_r	pro_sup_r	wrist_flex_r	wrist_dev_r	arm_flex_l	arm_add_l	arm_rot_l	elbow_flex_l	pro_sup_l	wrist_flex_l	wrist_dev_l
      2.43000000	     11.85253332	      4.28161492	      3.57944154	      0.62507723	      0.93314404	     -0.28495609	      4.57449740	     -5.10685290	     -1.17497148	     61.95250917	      4.13629430	      1.08127526	      5.00845665	    -14.96395548	     -7.50365711	      0.30169022	      8.91422228	    -23.74673838	     24.39702406	     -7.39646126	      0.42580840	     20.59656377	     19.48585124	     -7.50365711	    -44.00319095	     -7.77076384	     -4.12022319	      3.93467883	     -8.30783813	     12.49655497	     38.81183670	     90.00000001	      0.00000000	      0.00000000	     -3.60267573	    -15.23026960	     17.29055577	     51.96508415	     90.00000001	      0.00000000	      0.00000000
      2.44000000	     11.71195139	      4.27834855	      3.63267911	      0.62929524	      0.93320081	     -0.28529707	      5.91475669	     -5.04994294	     -1.10827686	     61.59936959	      3.72354386	      1.07511182	      5.64731212	    -14.91887187	     -7.50361517	      0.01825973	      8.92022929	    -24.12030473	     24.10515059	     -7.46682084	      0.42071424	     20.70688111	     19.77138812	     -7.50361517	    -43.94416826	     -7.68720240	     -4.24333548	      3.93045351	     -8.22101349	     12.50772115	     38.89568431	     90.00000001	      0.00000000	      0.00000000	     -3.57878089	    -15.28068067	     17.32818639	     51.87767329	     90.00000001	      0.00000000	      0.00000000
      2.45000000	     11.62652099	      4.34097356	      3.46201631	      0.63366345	      0.93313029	     -0.28539779	      7.25338157	     -5.06054462	     -0.85955601	     61.25940669	      3.29629146	      1.06917834	      6.75440079	    -14.47411112	     -7.50345050	     -0.21672607	      8.89281842	    -25.91575400	     23.85267088	     -7.96631962	      0.41630764	     21.10826910	     22.92045043	     -7.50345050	    -43.90271335	     -7.75578409	     -4.15992655	      3.89098374	     -8.20432290	     12.43585277	     39.00381958	     90.00000001	      0.00000000	      0.00000000	     -3.49409484	    -15.27740790	     17.47905472	     51.71575466	     90.00000001	      0.00000000	      0.00000000
      2.46000000	     11.52137218	      4.33113333	      3.47022899	      0.63787765	      0.93326017	     -0.28556953	      8.46951649	     -4.92404204	     -0.81171929	     60.56378800	      2.81067201	      1.05703751	      7.35848925	    -14.64255496	     -7.50340877	     -0.55566276	      8.92957603	    -26.14804120	     23.53877723	     -8.03826676	      0.41082916	     21.28092144	     23.01866176	     -7.50340877	    -43.87450985	     -7.67947073	     -4.20042106	      3.91084625	     -8.14391597	     12.45687722	     39.04962722	     90.00000001	      0.00000000	      0.00000000	     -3.48404233	    -15.30828324	     17.48190922	     51.62819294	     90.00000001	      0.00000000	      0.00000000
      2.47000000	     11.45972419	      4.37180916	      3.44191724	      0.64221831	      0.93346117	     -0.28575305	      9.57394760	     -4.84744831	     -0.69998612	     59.71811207	      2.39182731	      1.04227768	      7.94430469	    -14.86935216	     -7.50336785	     -1.02018253	      9.06546315	    -26.39664539	     23.06330641	     -8.12360868	      0.40253063	     21.42524227	     23.40344621	     -7.50336785	    -43.87314340	     -7.64978027	     -4.23722421	      3.91227655	     -8.09490604	     12.45604289	     39.09235233	     90.00000001	      0.00000000	      0.00000000	     -3.48649366	    -15.32739200	     17.50565325	     51.47994801	     90.00000001	      0.00000000	      0.00000000
      2.48000000	     11.28675495	      4.44976221	      3.54103020	      0.64638053	      0.93340110	     -0.28619310	     10.76762210	     -4.99968377	     -0.69734046	     58.78565449	      2.23823120	      1.02600322	      8.09783315	    -14.59771347	     -7.50333220	     -1.24334257	      9.13287905	    -26.44657216	     22.94442127	     -7.97490386	      0.40045570	     21.41163793	     23.32554255	     -7.50333220	    -43.79853515	     -7.58268586	     -4.40363890	      3.91401310	     -8.05991696	     12.43057565	     39.26240807	     90.00000001	      0.00000000	      0.00000000	     -3.55337964	    -15.37374900	     17.49943508	     51.48482730	     90.00000001	      0.00000000	      0.00000000
      2.49000000	     11.66099402	      4.50015017	      3.40371455	      0.65149143	      0.93457424	     -0.28619021	     11.01894612	     -4.83189359	     -0.28125036	     57.27423310	      2.04818717	      0.99962394	      8.60302338	    -15.24950492	     -7.50326464	     -2.63410687	      9.39263018	    -26.66613628	     21.61871197	     -8.06172636	      0.37731770	     21.46601195	     24.86931032	     -7.50326464	    -44.17093873	     -7.57767159	     -4.33680785	      3.83659908	     -8.02036134	     12.34298254	     39.28890783	     90.00000001	      0.00000000	      0.00000000	     -3.56790198	    -15.36707197	     17.53877023	     51.18279596	     90.00000001	      0.00000000	      0.00000000
      2.50000000	     11.58487616	      4.56143966	      3.40157199	      0.65599114	      0.93461019	     -0.28639875	     11.94151395	     -4.79452390	     -0.20103751	     55.98791700	      1.74022073	      0.97717349	      8.88203257	    -15.36034170	     -7.50322286	     -3.08177831	      9.63087769	    -26.72521752	     21.15172602	     -8.22821622	      0.36916726	     21.60904554	     24.93174436	     -7.50322286	    -44.12866850	     -7.54588739	     -4.41201733	      3.81757759	     -7.98825703	     12.32589547	     39.35714743	     90.00000001	      0.00000000	      0.00000000	     -3.69001928	    -15.40239721	     17.54811423	     51.10756610	     90.00000001	      0.00000000	      0.00000000
      2.51000000	     11.62644470	      4.64200464	      3.38365943	      0.66066100	      0.93490248	     -0.28657110	     12.59429540	     -4.78978731	     -0.04638562	     54.45213038	      1.56101651	      0.95036896	      9.03761434	    -15.54637872	     -7.50318224	     -3.80800439	      9.91651636	    -26.58732933	     20.42459455	     -8.29505430	      0.35647642	     21.72633026	     25.13190626	     -7.50318224	    -44.20076849	     -7.52490582	     -4.48745085	      3.79525418	     -7.94622928	     12.28760733	     39.40861750	     90.00000001	      0.00000000	      0.00000000	     -3.80699681	    -15.43038399	     17.55015956	     50.95137967	     90.00000001	      0.00000000	      0.00000000
      2.52000000	     11.85512873	      4.70246634	      3.39623401	      0.66555139	      0.93562241	     -0.28684362	     12.86306853	     -4.80800769	      0.13184927	     52.63868283	      1.55168164	      0.91871833	      8.99695703	    -15.73204383	     -7.50313190	     -4.94020015	     10.18861051	    -26.18968124	     19.39840529	     -8.19785463	      0.33856604	     21.71063439	     25.36921531	     -7.50313190	    -44.46405629	     -7.43104159	     -4.53106376	      3.75502880	     -7.95499981	     12.20726654	     39.46845691	     90.00000001	      0.00000000	      0.00000000	     -3.90457818	    -15.43031887	     17.52575112	     50.79856742	     90.00000001	      0.00000000	      0.00000000
      2.53000000	     12.23338399	      4.76505819	      3.45546801	      0.67062621	      0.93668388	     -0.28710121	     12.81453053	     -4.86216382	      0.10379731	     50.58598102	      1.52601152	      0.88289192	      8.74776327	    -15.74456219	     -7.50302878	     -6.41373432	     10.37256383	    -25.34816814	     18.22631707	     -7.71839912	      0.31810924	     21.33712255	     25.11045421	     -7.50302878	    -44.87757854	     -7.30493489	     -4.62842703	      3.68368241	     -7.95884159	     12.12661373	     39.68359161	     90.00000001	      0.00000000	      0.00000000	     -4.04536603	    -15.46726858	     17.45657761	     50.75242675	     90.00000001	      0.00000000	      0.00000000
      2.54000000	     11.93647517	      4.95358855	      3.42974596	      0.67509498	      0.93584706	     -0.28722129	     13.95090926	     -5.17531286	     -0.06844915	     49.21685407	      1.41243822	      0.85899615	      8.74388844	    -15.39945443	     -7.50299581	     -6.52484673	     10.62689934	    -25.36211453	     18.08039163	     -7.60463412	      0.31556236	     21.40169399	     24.82671850	     -7.50299581	    -44.60607647	     -7.42284935	     -4.74427535	      3.61807860	     -7.94392851	     12.10481393	     39.83028627	     90.00000001	      0.00000000	      0.00000000	     -4.25774092	    -15.53501430	     17.44729137	     50.75013790	     90.00000001	      0.00000000	      0.00000000
